<svg xmlns="http://www.w3.org/2000/svg" version="1.1" xmlns:xlink="http://www.w3.org/1999/xlink" width="200" height="200"><svg xmlns="http://www.w3.org/2000/svg" version="1.1" xmlns:xlink="http://www.w3.org/1999/xlink" viewBox="0 0 200 200"><rect width="200" height="200" fill="url('#gradient')"></rect><defs><linearGradient id="SvgjsLinearGradient1001" gradientTransform="rotate(45 0.5 0.5)"><stop offset="0%" stop-color="#cfe5d7"></stop><stop offset="100%" stop-color="#dfc189"></stop></linearGradient></defs><g><g fill="#57799d" transform="matrix(8.798090692124106,0,0,8.798090692124106,4.760477221438876,146.45711989710043)" stroke="#ffffff" stroke-width="0.2"><path d="M6.04 0.20L6.04 0.20Q3.60 0.20 2.10-1.25Q0.60-2.71 0.60-5.03L0.60-5.03L0.60-5.30Q0.60-6.92 1.20-8.16Q1.80-9.40 2.95-10.08Q4.10-10.76 5.68-10.76L5.68-10.76Q7.91-10.76 9.20-9.38Q10.49-8.00 10.49-5.53L10.49-5.53L10.49-4.25L3.95-4.25Q4.12-3.36 4.72-2.85Q5.31-2.34 6.26-2.34L6.26-2.34Q7.82-2.34 8.70-3.44L8.70-3.44L10.21-1.66Q9.59-0.81 8.46-0.31Q7.33 0.20 6.04 0.20ZM5.66-8.22L5.66-8.22Q4.22-8.22 3.95-6.31L3.95-6.31L7.27-6.31L7.27-6.56Q7.29-7.35 6.87-7.79Q6.45-8.22 5.66-8.22ZM21.05 0L17.76 0Q17.59-0.32 17.45-0.95L17.45-0.95Q16.54 0.20 14.91 0.20L14.91 0.20Q13.42 0.20 12.37-0.71Q11.33-1.61 11.33-2.98L11.33-2.98Q11.33-4.70 12.60-5.58Q13.87-6.46 16.29-6.46L16.29-6.46L17.30-6.46L17.30-7.01Q17.30-8.47 16.04-8.47L16.04-8.47Q14.87-8.47 14.87-7.31L14.87-7.31L11.58-7.31Q11.58-8.85 12.89-9.80Q14.19-10.76 16.21-10.76Q18.23-10.76 19.40-9.78Q20.58-8.79 20.61-7.07L20.61-7.07L20.61-2.39Q20.63-0.94 21.05-0.17L21.05-0.17L21.05 0ZM15.70-2.15L15.70-2.15Q16.32-2.15 16.72-2.41Q17.13-2.68 17.30-3.01L17.30-3.01L17.30-4.70L16.35-4.70Q14.63-4.70 14.63-3.15L14.63-3.15Q14.63-2.71 14.93-2.43Q15.23-2.15 15.70-2.15Z"></path></g></g></svg><style>@media (prefers-color-scheme: light) { :root { filter: none; } }
@media (prefers-color-scheme: dark) { :root { filter: none; } }
</style></svg>